<svg width="512" height="512" viewBox="0 0 512 512" fill="none" xmlns="http://www.w3.org/2000/svg">
  <rect width="512" height="512" rx="120" fill="black"/>
  <!-- The "K" -->
  <path d="M120 140V380H175V270L320 380H390L230 255L380 140H315L175 245V140H120Z" fill="white"/>
  <!-- Small Cloud moved higher to avoid overlap -->
  <path d="M430 110C430 96.1929 418.807 85 405 85C403.428 85 401.906 85.145 400.437 85.4217C395.152 75.1991 384.527 68.3333 372.262 68.3333C356.244 68.3333 342.954 79.8117 339.974 95.0001C334.396 96.0521 330 100.858 330 106.667C330 113.11 335.223 118.333 341.667 118.333H421.667C426.269 118.333 430 114.602 430 110Z" fill="white" fill-opacity="0.9"/>
</svg>